# xmcd
#
# Track frame offsets:
# 150
# 13057
# 23182
# 34161
# 44465
# 55240
# 67069
# 79625
# 93080
# 103512
# 115247
# 126412
# 140051
# 151354
# 162923
# 175534
# 186911
# 200878
# 213234
# 225257
# 239378
# 252031
# 265087
# 278603
# 288576
# 300890
# 312085
# 325399
# 336658
# 346311
#
# Disc length: 4765 seconds
#
#
# Revision: 0
# Processed by: cddbd v1.5.1PL0 Copyright (c) Steve Scherf et al.
# Submitted via: FreeRIP 2.942 
#
DISCID=ae129b1e
DTITLE=Ray Price - 
DYEAR=1900
DGENRE=Country
TTITLE0=01-Sweet Little Miss Blue Eyes by Ray Price
TTITLE1=02-The Way She Got Away by Ray Price
TTITLE2=03-As Strange As It Seems( I Still Love You) by Ray Price
TTITLE3=04-I Can't Go Home Like This by Ray Price
TTITLE4=05-Don't You Know Me Any More by Ray Price
TTITLE5=06-I don't Want It On My Conscience by Ray Price
TTITLE6=07-Run Boy by Ray Price
TTITLE7=08-You Never Will be True by Ray Price
TTITLE8=09-Don't Tempt Me by Ray Price
TTITLE9=10-Crazy Arms by Ray Price
TTITLE10=11-You Done  Me Wrong by Ray Price
TTITLE11=12-Wild and Wicked World by Ray Price
TTITLE12=13-Are You Wasting My Time by Ray Price
TTITLE13=14-Wasted Words by Ray Price
TTITLE14=15-I've Got A New Heartache by Ray Price
TTITLE15=16-Don't Do This To Me by Ray Price
TTITLE16=17-Hey La La by Ray Price
TTITLE17=18-Talk To Your Heart by Ray Price
TTITLE18=19-The Road Of No Return by Ray Price
TTITLE19=20-Won't You Please Be Mine by Ray Price
TTITLE20=21-Don't Let The Stars Get In Your Eyes by Ray Price
TTITLE21=22-My Old Scrapbook by Ray Price
TTITLE22=23-The Price For Loving You by Ray Price
TTITLE23=24-That's What I Get For Loving You by Ray Price
TTITLE24=25-Release Me by Ray Price
TTITLE25=26-I'll Be There (If You Ever Want Me) by Ray Price
TTITLE26=27-Letters Have No Arms by Ray Price
TTITLE27=28-A Mansion On The Hill by Ray Price
TTITLE28=29-I Can't Help It by Ray Price
TTITLE29=30-Blues Stay Away From Me by Ray Price
EXTD=
EXTT0=
EXTT1=
EXTT2=
EXTT3=
EXTT4=
EXTT5=
EXTT6=
EXTT7=
EXTT8=
EXTT9=
EXTT10=
EXTT11=
EXTT12=
EXTT13=
EXTT14=
EXTT15=
EXTT16=
EXTT17=
EXTT18=
EXTT19=
EXTT20=
EXTT21=
EXTT22=
EXTT23=
EXTT24=
EXTT25=
EXTT26=
EXTT27=
EXTT28=
EXTT29=
PLAYORDER=
